# xmcd
# 
# Track frame offsets:
#     150
#     16232
#     34053
# 
# Disc length: 666
# 
# Revision: 5
# Processed by: cddbd v1.5.1PL2 Copyright (c) Steve Scherf et al.
# Submitted via: BonkEnc v1.0beta3
# 
DISCID=18029803
DTITLE=Kool Savas and Azad - All 4 One
DYEAR=2005
DGENRE=Hip-Hop
TTITLE0=All 4 One
TTITLE1=All 4 One (Martelli RMX)
TTITLE2=All 4 One (Instrumental)
EXTD=
EXTT0=
EXTT1=
EXTT2=
PLAYORDER=
